<svg height="714" viewBox="-12.38118457 -2.3 750.37118457 215.5772718" width="2500" xmlns="http://www.w3.org/2000/svg"><path d="m52.86 115.02h-52.77l.03.77c.02.5.06.99.09 1.49.01.21.02.42.04.63.04.58.09 1.15.14 1.72.02.13.03.26.04.38.06.64.13 1.27.2 1.9.01.07.01.13.02.19.09.68.17 1.36.27 2.04 0 .01 0 .02.01.02.6 4.21 1.51 8.37 2.72 12.46.01.02.02.04.02.06.19.64.39 1.28.59 1.92.02.04.03.07.04.11s.02.08.04.11c.18.58.38 1.15.58 1.73.05.14.1.29.15.43l.54 1.5c.09.22.17.45.26.67.16.41.32.82.48 1.24.12.3.25.61.38.92.13.32.27.64.4.96.17.4.35.79.52 1.18.1.23.21.46.31.7.22.47.44.93.66 1.4.07.15.14.3.22.45.26.54.52 1.07.79 1.6l.12.24c.3.59.61 1.17.93 1.75.01.03.03.05.04.08.06.12.14.24.2.36l45.07-27.13.16-.1a36.119 36.119 0 0 1 -3.29-11.78z" fill="#93d500"/><path d="m65.83 139.23-.13.13-37.17 37.14c.19.18.38.36.58.53.35.32.7.63 1.05.94l.54.48c.42.36.85.72 1.27 1.07l.35.29c.47.39.96.78 1.45 1.16l.18.15c.53.41 1.06.82 1.6 1.22.02.02.04.03.06.05a91 91 0 0 0 6.95 4.7c.08.05.17.1.25.15.46.27.91.54 1.37.81.28.16.56.32.84.47.27.16.53.3.8.45a67 67 0 0 0 1.45.79c.07.03.13.07.2.1 1.35.71 2.73 1.37 4.11 2l1.32-3.2 18.7-45.37.06-.17a35.65 35.65 0 0 1 -5.83-3.89z" fill="#4d5a31"/><path d="m61.96 135.53c-.41-.45-.79-.9-1.16-1.37-.34-.41-.66-.82-.97-1.24-.35-.48-.7-.96-1.03-1.46-.33-.49-.66-.99-.96-1.5l-45.12 27.16a84.04 84.04 0 0 0 2.15 3.38c.02.04.05.08.07.12.01.01.02.02.03.04.02.03.05.07.07.11l.01.01.18.27s0 .01.01.01v.01c.79 1.16 1.59 2.3 2.42 3.41.02.02.04.04.06.07.02.02.03.04.05.07.36.48.72.95 1.1 1.42.05.07.09.13.15.19.38.49.77.97 1.16 1.45.1.11.19.22.29.34.35.42.71.85 1.07 1.27l.48.54.93 1.05c.18.19.36.38.53.58.08.08.16.17.25.26.23.25.46.5.69.74.09.1.19.2.29.3.41.42.82.85 1.24 1.27l37.23-37.2c-.43-.42-.83-.86-1.22-1.3z" fill="#6ba43a"/><path d="m111.29 139.21c-.41.33-.82.65-1.24.96l.09.16 27.14 45.02c1.26-.82 2.5-1.67 3.71-2.55 2.63-1.94 5.17-4.04 7.62-6.3l-37.17-37.14z" fill="#4d5a31"/><path d="m133.34 185.72-.92-1.53-25.34-42.02c-.51.31-1.03.58-1.56.87-.53.28-1.06.55-1.6.8a35.915 35.915 0 0 1 -15.41 3.49c-3.45 0-6.91-.5-10.25-1.5-.57-.17-1.12-.39-1.68-.59-.57-.2-1.14-.37-1.69-.6l-18.68 45.34-.73 1.78-.63 1.52c.05.02.1.04.14.06.06.02.11.04.16.06.02.01.03.01.04.01.44.19.88.34 1.33.51.55.22 1.11.44 1.66.64.29.11.57.23.85.33h.01c5.85 2.06 11.9 3.51 18.06 4.32l.72.09.76.09c.47.05.95.11 1.42.15l.36.03c.58.06 1.16.11 1.74.15.2.01.4.02.6.04.51.03 1.02.06 1.53.08.31.02.63.03.94.04.41.02.81.03 1.22.05.58.01 1.17.01 1.76.02h.41c4.92 0 9.84-.41 14.7-1.22.08-.01.16-.03.25-.04.51-.09 1.02-.19 1.54-.28.29-.06.59-.11.87-.17.3-.06.61-.12.91-.19.5-.1 1-.21 1.5-.33l.27-.06a88.951 88.951 0 0 0 21.24-7.92c.44-.23.87-.49 1.31-.73.52-.29 1.03-.58 1.55-.88.36-.2.72-.39 1.08-.6 0-.01.01-.01.01-.01.01-.01.01-.01.02-.01l.01-.01-.07-.11.07.11h.01l.01-.01a.21.21 0 0 0 .06-.04c.12-.07.23-.14.35-.2zm-67.49-102.02c.41-.34.82-.66 1.24-.97l-.09-.15-27.14-45.02c-1.26.82-2.5 1.67-3.72 2.56a87.985 87.985 0 0 0 -7.61 6.28l37.17 37.15z" fill="#93d500"/><path d="m25.95 48.87c-.42.43-.82.86-1.23 1.29s-.83.86-1.24 1.29a89.397 89.397 0 0 0 -7.52 9.32c-.11.15-.21.31-.32.46-.26.37-.51.74-.76 1.12-.26.38-.51.78-.76 1.17-.1.14-.19.28-.28.43-8.55 13.4-13.13 28.6-13.75 43.93-.02.6-.03 1.19-.05 1.79-.01.59-.03 1.19-.03 1.78h52.65c0-.59.05-1.19.08-1.78.03-.6.04-1.19.1-1.79.68-6.85 3.33-13.54 7.94-19.16.37-.45.8-.88 1.2-1.32s.77-.9 1.2-1.33zm108.62-13.05c-.07-.05-.15-.09-.22-.13-.46-.29-.93-.56-1.4-.83-.27-.16-.54-.31-.81-.47-.28-.15-.55-.3-.82-.45-.48-.26-.96-.52-1.43-.77-.08-.04-.15-.08-.23-.12a87.459 87.459 0 0 0 -9.49-4.27c-.09-.03-.17-.06-.25-.09-.71-.27-1.42-.53-2.13-.78-5.75-2-11.7-3.41-17.74-4.2-.24-.04-.49-.07-.74-.1l-.74-.09c-.48-.05-.95-.11-1.43-.15-.13-.01-.26-.02-.4-.04-.56-.05-1.13-.1-1.7-.14-.22-.02-.44-.03-.66-.04-.49-.03-.98-.07-1.46-.09l-.78-.03v52.74c2.71.28 5.39.85 7.99 1.74l38.84-38.81c-1.44-1-2.9-1.97-4.4-2.88z" fill="#4d5a31"/><path d="m86.79 22.99c-.6.01-1.2.01-1.79.04-3.72.15-7.44.53-11.13 1.14-.08.02-.16.03-.24.04-.52.09-1.03.19-1.54.28-.29.06-.59.11-.88.17-.3.06-.6.13-.91.19-.5.1-1 .21-1.49.33-.1.02-.19.04-.28.06a88.951 88.951 0 0 0 -21.24 7.92c-.44.23-.86.49-1.3.73-.52.29-1.04.58-1.56.88-.38.22-.77.42-1.15.65-.01 0-.01.01-.02.01-.02.01-.05.03-.08.04-.1.06-.2.11-.3.17v.01l.93 1.53 26.25 43.56c.51-.31 1.03-.59 1.56-.87.52-.29 1.06-.55 1.59-.81 3.75-1.78 7.74-2.89 11.79-3.3.59-.06 1.19-.11 1.78-.14.6-.03 1.19-.06 1.79-.06v-52.61c-.6 0-1.19.03-1.78.04z" fill="#6ba43a"/><path d="m177.02 107.1-.09-1.42c-.01-.23-.03-.47-.05-.7-.03-.56-.08-1.12-.13-1.67-.01-.14-.03-.29-.04-.43-.06-.62-.13-1.24-.2-1.86-.01-.05-.01-.1-.02-.15 0-.03 0-.05-.01-.07-.08-.67-.17-1.34-.26-2.01 0-.02-.01-.04-.01-.06-.61-4.2-1.51-8.35-2.72-12.44-.01-.03-.02-.05-.03-.08-.19-.63-.38-1.27-.58-1.9-.03-.08-.06-.16-.08-.25-.19-.56-.38-1.13-.58-1.7-.05-.15-.1-.3-.16-.46-.17-.49-.35-.98-.53-1.47l-.27-.69c-.15-.41-.31-.81-.47-1.21l-.39-.96-.39-.93c-.18-.4-.35-.8-.53-1.2-.1-.23-.2-.45-.3-.68-.22-.47-.44-.95-.67-1.42-.07-.14-.14-.29-.21-.43-.26-.54-.52-1.08-.8-1.62-.03-.07-.07-.14-.11-.22-.3-.59-.62-1.18-.93-1.77a.21.21 0 0 0 -.04-.06 88.601 88.601 0 0 0 -5.03-8.17l-38.85 38.83c.88 2.6 1.46 5.28 1.74 7.99h52.77z" fill="#4d5a31"/><path d="m124.48 111.45c0 .6-.05 1.19-.08 1.79-.03.59-.04 1.19-.1 1.78a35.722 35.722 0 0 1 -7.94 19.16c-.37.46-.8.89-1.2 1.33s-.77.9-1.2 1.32l37.23 37.2c.42-.42.82-.86 1.23-1.29s.83-.85 1.23-1.29a87.05 87.05 0 0 0 7.54-9.34c.1-.13.18-.26.27-.38.28-.4.54-.8.82-1.2.23-.36.47-.72.7-1.08.12-.18.23-.36.34-.53 8.54-13.4 13.11-28.58 13.72-43.9.02-.6.04-1.19.05-1.79.01-.59.03-1.18.03-1.78z" fill="#6ba43a"/><path d="m192.76 7.33c-9.63-9.63-25.25-9.63-34.88 0-7.68 7.67-9.22 19.15-4.64 28.37l-53.72 53.68c-9.22-4.57-20.71-3.03-28.39 4.64-9.63 9.63-9.63 25.23 0 34.86 9.63 9.62 25.25 9.62 34.88 0 7.68-7.68 9.22-19.16 4.64-28.38l53.72-53.68c9.22 4.57 20.7 3.04 28.39-4.64 9.63-9.62 9.63-25.23 0-34.85zm11.45 85.07c0-26.38 19.3-45.27 45.82-45.27 26.39 0 45.69 18.89 45.69 45.27 0 26.37-19.3 45.27-45.69 45.27-26.52 0-45.82-18.9-45.82-45.27zm72.34 0c0-16.41-10.37-28.74-26.52-28.74-16.28 0-26.65 12.33-26.65 28.74 0 16.27 10.37 28.73 26.65 28.73 16.15 0 26.52-12.46 26.52-28.73zm29.01-43.83h40.96c19.04 0 29.41 12.86 29.41 28.21 0 15.22-10.5 28.08-29.41 28.08h-22.32v31.23h-18.64zm51.34 28.21c0-7.35-5.65-11.81-13-11.81h-19.7v23.49h19.7c7.35 0 13-4.46 13-11.68zm27.43 59.31v-87.52h61.97v16.4h-43.32v18.37h42.4v16.41h-42.4v19.94h43.32v16.4zm133.65 0-41.75-57.08v57.08h-18.65v-87.52h19.18l40.57 54.98v-54.98h18.64v87.52zm96.6 0-5.52-14.83h-37.54l-5.52 14.83h-21.14l33.75-87.52h23.37l33.74 87.52zm-24.29-68.89-13.65 37.66h27.31zm50.28-18.63h40.96c19.04 0 29.41 12.86 29.41 28.21 0 15.22-10.5 28.08-29.41 28.08h-22.32v31.23h-18.64zm51.34 28.21c0-7.35-5.65-11.81-13-11.81h-19.7v23.49h19.7c7.35 0 13-4.46 13-11.68zm27.43 59.31v-87.52h18.65v87.52z" fill="#424143"/></svg>